<?xml version="1.0" encoding="UTF-8"?>
<svg xmlns="http://www.w3.org/2000/svg" xmlns:xlink="http://www.w3.org/1999/xlink" width="15px" height="15px" viewBox="0 0 15 15" version="1.1">
<g id="surface1">
<path style=" stroke:none;fill-rule:nonzero;fill:#29b500;fill-opacity:1;" d="M 12.09375 0.242188 C 11.796875 0.34375 11.644531 0.46875 10.984375 1.128906 L 10.386719 1.726562 L 11.777344 3.121094 L 13.167969 4.511719 L 13.949219 3.730469 C 14.640625 3.03125 14.734375 2.925781 14.78125 2.789062 C 14.828125 2.65625 14.847656 2.636719 14.917969 2.636719 C 14.992188 2.636719 15 2.628906 15 2.535156 C 15 2.441406 14.992188 2.429688 14.914062 2.429688 C 14.851562 2.429688 14.824219 2.417969 14.824219 2.382812 C 14.824219 2.359375 14.78125 2.261719 14.734375 2.167969 C 14.664062 2.042969 14.453125 1.8125 13.847656 1.210938 C 13.015625 0.382812 12.921875 0.304688 12.582031 0.21875 C 12.382812 0.160156 12.320312 0.167969 12.09375 0.242188 Z M 12.09375 0.242188 "/>
<path style=" stroke:none;fill-rule:nonzero;fill:#29b500;fill-opacity:1;" d="M 5.59375 6.519531 L 1.859375 10.253906 L 4.644531 13.039062 L 8.378906 9.300781 L 12.113281 5.566406 L 10.722656 4.175781 L 9.332031 2.78125 Z M 5.59375 6.519531 "/>
<path style=" stroke:none;fill-rule:nonzero;fill:#29b500;fill-opacity:1;" d="M 0.511719 13.007812 L 0.160156 14.589844 L 0.0742188 14.59375 L -0.015625 14.597656 L 0.0703125 14.609375 C 0.117188 14.617188 0.1875 14.664062 0.226562 14.710938 C 0.265625 14.757812 0.320312 14.796875 0.351562 14.796875 C 0.390625 14.796875 3.253906 14.113281 3.464844 14.054688 C 3.476562 14.050781 2.898438 13.457031 2.171875 12.734375 L 0.859375 11.421875 Z M 0.511719 13.007812 "/>
</g>
</svg>
