<?xml version="1.0" encoding="UTF-8"?>
<svg xmlns="http://www.w3.org/2000/svg" xmlns:xlink="http://www.w3.org/1999/xlink" width="15px" height="15px" viewBox="0 0 15 15" version="1.1">
<g id="surface1">
<path style=" stroke:none;fill-rule:nonzero;fill:#29b500;fill-opacity:1;" d="M 6.898438 2.78125 C 5.371094 2.957031 4.027344 3.515625 2.902344 4.449219 C 2.152344 5.070312 1.46875 5.957031 1.035156 6.855469 C 0.765625 7.414062 0.753906 7.488281 0.847656 7.726562 C 1.175781 8.558594 1.765625 9.441406 2.445312 10.125 C 3.585938 11.265625 4.988281 11.949219 6.695312 12.195312 C 7.039062 12.242188 7.960938 12.242188 8.320312 12.191406 C 9.980469 11.960938 11.414062 11.261719 12.554688 10.121094 C 13.136719 9.542969 13.5625 8.945312 13.949219 8.171875 C 14.195312 7.671875 14.234375 7.550781 14.1875 7.367188 C 14.140625 7.195312 13.832031 6.570312 13.621094 6.222656 C 12.515625 4.394531 10.609375 3.148438 8.421875 2.824219 C 8.058594 2.773438 7.210938 2.75 6.898438 2.78125 Z M 8.136719 4.527344 C 9.214844 4.730469 10.058594 5.46875 10.378906 6.488281 C 10.492188 6.851562 10.527344 7.15625 10.507812 7.65625 C 10.480469 8.511719 10.234375 9.097656 9.667969 9.664062 C 9.273438 10.0625 8.878906 10.285156 8.328125 10.433594 C 8.035156 10.511719 7.320312 10.539062 6.96875 10.488281 C 6.324219 10.394531 5.785156 10.125 5.328125 9.671875 C 4.746094 9.085938 4.484375 8.410156 4.484375 7.5 C 4.484375 6.589844 4.746094 5.914062 5.328125 5.328125 C 5.757812 4.90625 6.238281 4.648438 6.84375 4.53125 C 7.125 4.472656 7.84375 4.46875 8.136719 4.527344 Z M 8.136719 4.527344 "/>
<path style=" stroke:none;fill-rule:nonzero;fill:#29b500;fill-opacity:1;" d="M 7.207031 6.023438 C 6.636719 6.171875 6.167969 6.644531 6.019531 7.222656 C 5.964844 7.441406 5.964844 7.5625 6.019531 7.777344 C 6.175781 8.367188 6.636719 8.828125 7.222656 8.980469 C 7.441406 9.035156 7.5625 9.035156 7.777344 8.980469 C 8.367188 8.824219 8.828125 8.363281 8.980469 7.777344 C 9.003906 7.683594 9.023438 7.558594 9.023438 7.5 C 9.023438 7.441406 9.003906 7.316406 8.980469 7.222656 C 8.828125 6.640625 8.359375 6.171875 7.777344 6.019531 C 7.566406 5.96875 7.417969 5.96875 7.207031 6.023438 Z M 7.207031 6.023438 "/>
</g>
</svg>
