<?xml version="1.0" encoding="UTF-8"?>
<svg xmlns="http://www.w3.org/2000/svg" xmlns:xlink="http://www.w3.org/1999/xlink" width="15px" height="15px" viewBox="0 0 15 15" version="1.1">
<g id="surface1">
<path style=" stroke:none;fill-rule:nonzero;fill:#5a749c;fill-opacity:1;" d="M 5.828125 0.0820312 C 5.828125 0.152344 5.8125 0.171875 5.679688 0.21875 C 5.464844 0.292969 5.21875 0.546875 5.125 0.777344 C 5.070312 0.929688 5.058594 1 5.0625 1.367188 L 5.066406 1.789062 L 3.824219 1.789062 C 2.621094 1.789062 2.574219 1.789062 2.410156 1.851562 C 2.183594 1.9375 1.9375 2.179688 1.855469 2.402344 C 1.785156 2.589844 1.742188 3.003906 1.773438 3.21875 L 1.792969 3.367188 L 13.210938 3.367188 L 13.210938 2.972656 C 13.210938 2.640625 13.203125 2.554688 13.148438 2.410156 C 13.0625 2.179688 12.820312 1.9375 12.589844 1.851562 C 12.425781 1.789062 12.378906 1.789062 11.175781 1.789062 L 9.929688 1.789062 L 9.929688 1.363281 C 9.929688 1 9.921875 0.914062 9.867188 0.769531 C 9.785156 0.546875 9.53125 0.289062 9.320312 0.21875 C 9.1875 0.171875 9.171875 0.152344 9.171875 0.0820312 L 9.171875 0 L 5.828125 0 Z M 9.242188 0.835938 C 9.277344 0.875 9.289062 0.957031 9.289062 1.289062 C 9.289062 1.621094 9.277344 1.703125 9.242188 1.742188 C 9.199219 1.78125 9.003906 1.789062 7.5 1.789062 C 5.996094 1.789062 5.800781 1.78125 5.757812 1.742188 C 5.691406 1.671875 5.691406 0.90625 5.757812 0.835938 C 5.800781 0.796875 5.996094 0.789062 7.5 0.789062 C 9.003906 0.789062 9.199219 0.796875 9.242188 0.835938 Z M 9.242188 0.835938 "/>
<path style=" stroke:none;fill-rule:nonzero;fill:#5a749c;fill-opacity:1;" d="M 3.007812 4.796875 C 3.015625 4.90625 3.15625 7.042969 3.324219 9.546875 L 3.625 14.09375 L 3.71875 14.28125 C 3.828125 14.507812 4.046875 14.714844 4.25 14.785156 C 4.375 14.828125 4.394531 14.847656 4.394531 14.917969 L 4.394531 15 L 10.605469 15 L 10.605469 14.917969 C 10.605469 14.847656 10.625 14.828125 10.75 14.785156 C 10.953125 14.714844 11.171875 14.507812 11.28125 14.28125 L 11.375 14.09375 L 11.675781 9.546875 C 11.84375 7.042969 11.984375 4.90625 11.992188 4.796875 L 12.007812 4.601562 L 2.992188 4.601562 Z M 5.539062 6.746094 C 5.746094 6.882812 5.726562 6.75 5.980469 9.660156 C 6.226562 12.53125 6.246094 12.875 6.152344 13.03125 C 6.050781 13.199219 5.941406 13.242188 5.621094 13.242188 C 5.378906 13.242188 5.328125 13.234375 5.242188 13.175781 C 5.035156 13.039062 5.054688 13.171875 4.800781 10.261719 C 4.554688 7.390625 4.535156 7.046875 4.628906 6.890625 C 4.730469 6.722656 4.839844 6.679688 5.160156 6.679688 C 5.402344 6.679688 5.453125 6.6875 5.539062 6.746094 Z M 7.882812 6.746094 C 7.9375 6.78125 8.007812 6.859375 8.039062 6.914062 C 8.101562 7.015625 8.101562 7.042969 8.101562 9.960938 C 8.101562 12.878906 8.101562 12.90625 8.039062 13.007812 C 7.929688 13.195312 7.820312 13.242188 7.5 13.242188 C 7.179688 13.242188 7.070312 13.195312 6.960938 13.007812 C 6.898438 12.90625 6.898438 12.878906 6.898438 9.960938 C 6.898438 7.042969 6.898438 7.015625 6.960938 6.914062 C 7.070312 6.726562 7.179688 6.679688 7.5 6.679688 C 7.746094 6.679688 7.796875 6.6875 7.882812 6.746094 Z M 10.21875 6.738281 C 10.390625 6.84375 10.429688 6.945312 10.429688 7.296875 C 10.429688 7.464844 10.324219 8.796875 10.199219 10.261719 C 9.945312 13.171875 9.964844 13.039062 9.757812 13.175781 C 9.671875 13.234375 9.621094 13.242188 9.378906 13.242188 C 9.058594 13.242188 8.949219 13.199219 8.847656 13.03125 C 8.753906 12.875 8.773438 12.53125 9.019531 9.660156 C 9.273438 6.75 9.253906 6.882812 9.460938 6.746094 C 9.546875 6.6875 9.597656 6.679688 9.839844 6.679688 C 10.070312 6.679688 10.140625 6.691406 10.21875 6.738281 Z M 10.21875 6.738281 "/>
</g>
</svg>
